<svg width="201" height="44" viewBox="0 0 201 44" fill="none" xmlns="http://www.w3.org/2000/svg">
<g id="Frame 2072750474">
<g id="Vector">
<path d="M20.553 4.66055C20.1356 4.74082 19.4131 4.91743 18.9475 5.06192C17.9521 5.38303 15.9292 6.41055 15.9292 6.58715C15.9292 6.65137 17.8237 6.7477 20.1517 6.79587C23.0737 6.84403 24.7916 6.95642 25.7709 7.13303C31.3902 8.1766 35.9659 12.4954 37.459 18.1628C37.748 19.2385 37.8122 19.961 37.8283 21.7592C37.8283 23.8142 37.7641 24.344 37.0737 27.844C36.6402 29.9472 36.3352 31.7936 36.3673 31.9381C36.4154 32.1307 36.7686 31.8417 37.6998 30.9105C39.0485 29.5459 39.9315 28.0849 40.381 26.4954C40.5897 25.7729 41.4567 21.4381 42.5003 15.8991C42.6127 15.3211 43.1104 12.7362 43.6081 10.1514C44.1219 7.56651 44.4751 5.30275 44.4269 5.12615C44.3627 4.94954 44.1379 4.74082 43.9131 4.64449C43.4315 4.46789 21.6448 4.48394 20.553 4.66055Z" fill="#9FB1C5"/>
<path d="M86.2985 4.91743C85.8329 5.1422 85.2228 5.6078 84.9017 5.94495C84.3879 6.52294 83.842 7.83945 83.842 8.52982C83.842 9.09174 84.5003 10.5528 84.9338 10.9541C85.8008 11.7729 86.3787 11.9656 88.0164 11.9656C89.3971 11.9656 89.6219 11.9174 90.3925 11.5C92.6081 10.2638 93.2182 7.37385 91.5966 5.70413C90.7297 4.80505 89.943 4.5 88.4017 4.5C87.342 4.5 86.9728 4.56422 86.2985 4.91743Z" fill="#9FB1C5"/>
<path d="M172.257 4.72477C171.438 5.02982 170.603 5.68807 170.09 6.47477C169.704 7.05275 169.656 7.27752 169.656 8.43349C169.656 9.58945 169.704 9.81422 170.09 10.4083C170.748 11.3876 171.759 11.9174 173.172 12.0138C173.798 12.0459 174.601 11.9977 174.954 11.9014C176.014 11.6284 177.042 10.8578 177.555 10.0069C177.941 9.34862 178.005 9.07569 178.005 8C178.005 6.8922 177.957 6.7156 177.523 6.08945C177.218 5.65596 176.72 5.22248 176.175 4.94954C175.452 4.56422 175.131 4.5 174.087 4.5C173.413 4.51606 172.594 4.61239 172.257 4.72477Z" fill="#9FB1C5"/>
<path d="M53.3375 8.43349C53.3375 8.4656 53.1287 9.52523 52.8719 10.7936C52.615 12.0619 51.8443 15.867 51.1861 19.2706C50.5118 22.6743 49.3558 28.5505 48.6012 32.3394C47.8627 36.1284 47.2847 39.2913 47.3329 39.3555C47.4613 39.5642 64.0301 39.5321 66.1173 39.3234C70.0347 38.922 72.6677 37.8463 74.7067 35.8073C76.6815 33.8326 77.3719 31.9381 77.2274 29C77.1631 27.8601 77.0508 27.2982 76.7297 26.5917C76.2641 25.5803 75.0118 24.2477 74.0485 23.7661C73.7113 23.5894 73.3902 23.3968 73.342 23.3165C73.3099 23.2523 73.6471 23.0115 74.0966 22.8028C75.2365 22.2569 77.0989 20.4587 77.709 19.3028C79.3787 16.172 78.881 12.4312 76.5531 10.5206C75.5576 9.71789 73.9521 9.01147 72.2503 8.65826C70.8856 8.38532 70.0026 8.35321 62.0553 8.35321C57.2549 8.35321 53.3375 8.38532 53.3375 8.43349ZM69.6333 14.2133C70.8535 14.8234 71.2067 15.4014 71.1907 16.7339C71.1746 18.0344 70.5806 19.2706 69.6654 19.8807C68.2205 20.8601 67.8191 20.9243 62.6975 21.0046C58.4108 21.0528 57.9934 21.0367 57.9934 20.7959C57.9934 20.4427 59.2939 13.9243 59.3902 13.7638C59.4384 13.6835 61.5416 13.6514 64.0783 13.6835L68.67 13.7317L69.6333 14.2133ZM67.5462 26.4151C69.4567 26.9128 70.1953 27.7638 70.1953 29.4174C70.1953 31.1032 69.5852 32.195 68.2044 32.9977C66.8397 33.7844 65.9888 33.8807 60.498 33.8807C57.7044 33.8807 55.4246 33.8165 55.4246 33.7362C55.4246 33.3991 56.7411 26.8647 56.8696 26.5275L57.0301 26.1743H61.8145C65.6035 26.1743 66.7916 26.2225 67.5462 26.4151Z" fill="#9FB1C5"/>
<path d="M12.3489 10.2156C9.34662 10.9381 6.52094 13.2661 5.18837 16.1078C4.6425 17.2798 4.44984 18.0826 3.47048 23.2041C2.31451 29.3372 2.02552 30.8624 1.33516 34.4266C0.580569 38.2798 0.532404 38.9381 0.981945 39.1789C1.19066 39.2913 5.2847 39.3394 13.1517 39.3394C26.1241 39.3394 26.0439 39.3394 28.0347 38.3761C29.8489 37.5092 31.4384 35.9037 32.3375 34.0413C32.7228 33.2546 33.0439 31.9862 33.6861 28.7431C34.7618 23.3647 34.8902 22.289 34.6975 20.5872C34.3604 17.633 33.1081 15.2087 30.7962 13.0573C29.3512 11.7087 27.2319 10.5849 25.4338 10.1995C23.8122 9.86239 13.7457 9.87844 12.3489 10.2156Z" fill="#9FB1C5"/>
<path d="M98.6608 10.2316L96.5416 10.2959L96.381 10.8899C96.3008 11.211 95.8994 13.1376 95.498 15.1766C95.0806 17.1995 94.1815 21.7592 93.4751 25.2913C92.592 29.6743 92.1907 32.0665 92.1907 32.8372C92.1907 36.4977 94.3902 38.8417 98.2755 39.3555C100.555 39.6445 104.152 39.0505 105.292 38.1835C105.42 38.0872 105.34 37.4128 105.019 35.7913C104.762 34.555 104.521 33.4794 104.473 33.3991C104.425 33.3188 104.039 33.4151 103.622 33.6078C102.562 34.0894 100.748 34.1055 100.106 33.6238C99.4957 33.1743 99.1907 32.5 99.2067 31.633C99.2067 30.75 100.989 21.6789 101.214 21.3899C101.342 21.2454 102.145 21.1972 104.248 21.1972C105.837 21.1972 107.122 21.1812 107.122 21.1491C107.122 21.117 107.347 19.9931 107.604 18.6605C107.876 17.3119 108.085 16.1881 108.085 16.1399C108.085 16.0917 106.817 16.0596 105.276 16.0596C102.915 16.0596 102.434 16.0275 102.37 15.8188C102.305 15.6904 102.498 14.422 102.787 12.9931C103.22 10.8417 103.269 10.3761 103.092 10.2638C102.964 10.1835 102.402 10.1353 101.824 10.1514C101.246 10.1674 99.8329 10.2156 98.6608 10.2316Z" fill="#9FB1C5"/>
<path d="M152.397 15.2569C150.952 15.4335 148.769 16.2683 147.532 17.1032C146.954 17.4885 146.457 17.7615 146.409 17.7294C146.36 17.6812 146.425 17.1995 146.553 16.6697C146.746 15.867 146.746 15.6583 146.585 15.5619C146.232 15.3372 140.757 15.4014 140.468 15.6261C140.292 15.7546 139.537 19.2546 137.899 27.4587C136.631 33.8647 135.62 39.1468 135.652 39.211C135.684 39.2913 137.225 39.3394 139.071 39.3394C142.427 39.3394 142.443 39.3395 142.507 38.9702C142.555 38.7775 142.989 36.5138 143.487 33.961C145.204 25.0665 145.477 24.2316 147.147 22.6904C148.432 21.5344 149.62 21.117 151.675 21.117C153.312 21.133 153.922 21.2936 154.709 21.9839C155.191 22.4174 155.608 23.3968 155.704 24.3601C155.801 25.3234 155.801 25.2913 153.842 34.8761C153.409 37.0596 153.039 38.9702 153.039 39.0986C153.039 39.3073 153.473 39.3394 156.443 39.3073L159.847 39.2592L161.259 32.195C162.03 28.3096 162.72 24.5849 162.769 23.9266C163.122 19.8486 160.874 16.4771 157.149 15.5138C155.961 15.1927 153.746 15.0803 152.397 15.2569Z" fill="#9FB1C5"/>
<path d="M83.3925 15.6904C83.1356 16.1881 78.6563 38.9862 78.7526 39.2431C78.8489 39.4679 79.2824 39.5 81.9475 39.5C83.6494 39.5 85.1425 39.4358 85.2388 39.3716C85.3512 39.2913 85.9131 36.8991 86.5072 33.8647C87.0852 30.9105 88.1287 25.6124 88.8352 22.0963C89.8306 17.1032 90.0714 15.6583 89.9108 15.5459C89.7985 15.4817 88.3214 15.4174 86.6196 15.4174C83.842 15.4174 83.5209 15.4495 83.3925 15.6904Z" fill="#9FB1C5"/>
<path d="M111.906 15.6101C111.73 15.7546 111.264 17.7775 110.349 22.4174C108.679 30.8142 108.615 31.3761 108.952 33.0138C109.787 37.1078 112.757 39.3394 117.397 39.3394C119.725 39.3394 121.764 38.7615 123.803 37.5413C124.927 36.867 125.168 36.8027 125.039 37.2041C124.895 37.6858 124.638 38.922 124.622 39.1468C124.622 39.3073 125.328 39.3394 127.849 39.3073L131.092 39.2592L133.42 27.5872C134.688 21.1651 135.7 15.8028 135.652 15.6743C135.555 15.4495 135.106 15.4174 132.457 15.4174C130.755 15.4174 129.262 15.4817 129.133 15.5619C128.989 15.6583 128.459 17.9702 127.672 21.9358C126.998 25.3716 126.324 28.5826 126.179 29.0803C125.858 30.156 124.831 31.7615 124.092 32.3073C122.759 33.3349 120.977 33.8326 119.324 33.672C116.899 33.4151 115.968 32.4037 115.952 29.9954C115.952 28.8555 116.321 26.7523 118.296 16.8784C118.473 15.9151 118.489 15.6583 118.328 15.5459C117.975 15.3211 112.195 15.3853 111.906 15.6101Z" fill="#9FB1C5"/>
<path d="M168.966 15.6101C168.854 15.7225 168.773 15.9151 168.773 16.0596C168.773 16.2041 167.762 21.3739 166.526 27.539C165.289 33.7202 164.278 38.906 164.278 39.0505C164.278 39.3234 164.679 39.3394 171.615 39.3073L178.968 39.2592L181.858 35.7752C183.448 33.8647 184.828 32.2913 184.909 32.2913C185.005 32.2752 185.792 33.656 186.675 35.3417C187.558 37.0275 188.392 38.617 188.553 38.8739L188.842 39.3394H192.374C194.317 39.3394 195.906 39.2913 195.906 39.2431C195.906 39.195 194.461 36.5298 192.679 33.3028C190.913 30.0917 189.484 27.3784 189.516 27.2982C189.548 27.2179 190.512 26.1904 191.652 25.0183C192.808 23.8303 194.526 22.0482 195.489 21.0367C196.452 20.0252 198.009 18.4037 198.941 17.4564C200.305 16.0596 200.594 15.7064 200.402 15.578C200.097 15.3853 193.964 15.3693 193.466 15.5619C193.257 15.6422 191.684 17.1995 189.982 19.0138C188.264 20.844 186.787 22.305 186.691 22.2729C186.594 22.2408 185.743 20.7798 184.796 19.0138C183.849 17.2638 182.95 15.7385 182.805 15.6261C182.436 15.3693 169.223 15.3532 168.966 15.6101ZM176.929 17.4564C179.642 22.3532 182.115 27.0413 182.035 27.2018C181.89 27.555 171.438 39.0183 171.262 39.0183C171.069 39.0183 171.31 37.6697 173.429 27.0734C174.665 20.9083 175.677 15.8349 175.677 15.8028C175.677 15.7706 175.741 15.7385 175.821 15.7385C175.902 15.7385 176.399 16.5092 176.929 17.4564Z" fill="#9FB1C5"/>
</g>
</g>
</svg>
