<svg width="177" height="48" viewBox="0 0 177 48" fill="none" xmlns="http://www.w3.org/2000/svg">
<g id="Frame 2072750471">
<g id="Vector">
<path d="M26.3695 20.1392C24.9898 20.1392 23.9005 21.3253 23.9005 22.8018C23.9005 24.2784 25.014 25.4645 26.3695 25.4645C27.7492 25.4645 28.8385 24.2784 28.8385 22.8018C28.8385 21.3253 27.725 20.1392 26.3695 20.1392ZM17.5344 20.1392C16.1547 20.1392 15.0654 21.3253 15.0654 22.8018C15.0654 24.2784 16.1789 25.4645 17.5344 25.4645C18.9141 25.4645 20.0034 24.2784 20.0034 22.8018C20.0276 21.3253 18.9141 20.1392 17.5344 20.1392Z" fill="#9FB1C5"/>
<path d="M38.1332 0H5.69753C2.96228 0 0.735352 2.22693 0.735352 4.96218V37.3979C0.735352 40.1331 2.96228 42.3601 5.69753 42.3601H33.1468L31.8639 37.9304L34.9623 40.7867L37.8912 43.4735L43.1196 48V4.96218C43.0954 2.22693 40.8685 0 38.1332 0ZM28.7898 31.3464C28.7898 31.3464 27.9184 30.3056 27.1922 29.41C30.3632 28.5144 31.5735 26.5537 31.5735 26.5537C30.581 27.2073 29.637 27.6672 28.7898 27.9818C27.5795 28.4902 26.4177 28.8048 25.28 29.0227C22.9562 29.4584 20.8261 29.3374 19.0107 28.9985C17.631 28.7322 16.4449 28.3691 15.4524 27.9576C14.8957 27.7398 14.2906 27.4735 13.6854 27.1346C13.6128 27.0862 13.5402 27.062 13.4676 27.0136C13.4192 26.9894 13.395 26.9652 13.3708 26.9652C12.935 26.7231 12.693 26.5537 12.693 26.5537C12.693 26.5537 13.8549 28.466 16.929 29.3858C16.2028 30.3056 15.3072 31.3707 15.3072 31.3707C9.95774 31.2012 7.92446 27.7156 7.92446 27.7156C7.92446 19.9939 11.4101 13.7247 11.4101 13.7247C14.8957 11.1346 18.1877 11.2073 18.1877 11.2073L18.4298 11.4977C14.0727 12.7322 12.0878 14.6445 12.0878 14.6445C12.0878 14.6445 12.6204 14.354 13.516 13.9667C16.106 12.829 18.1635 12.5386 19.0107 12.4418C19.1559 12.4175 19.277 12.3933 19.4222 12.3933C20.8987 12.1997 22.5689 12.1513 24.3117 12.3449C26.6113 12.6112 29.0803 13.289 31.5977 14.6445C31.5977 14.6445 29.6854 12.829 25.5704 11.5946L25.9093 11.2073C25.9093 11.2073 29.2255 11.1346 32.6869 13.7247C32.6869 13.7247 36.1726 19.9939 36.1726 27.7156C36.1726 27.6914 34.1393 31.177 28.7898 31.3464ZM65.3405 10.3601H57.3042V19.3888L62.6537 24.2057V15.4433H65.5099C67.3254 15.4433 68.221 16.3147 68.221 17.7186V24.4236C68.221 25.8275 67.3738 26.7716 65.5099 26.7716H57.28V31.879H65.3163C69.6249 31.9032 73.6673 29.7489 73.6673 24.8109V17.5976C73.6915 12.5628 69.6491 10.3601 65.3405 10.3601ZM107.458 24.8109V17.4039C107.458 14.7413 112.251 14.1362 113.704 16.7988L118.133 15.0076C116.39 11.1831 113.219 10.0696 110.581 10.0696C106.272 10.0696 102.012 12.5628 102.012 17.4039V24.8109C102.012 29.7005 106.272 32.1452 110.484 32.1452C113.195 32.1452 116.439 30.8139 118.23 27.3283L113.486 25.1498C112.324 28.1271 107.458 27.4009 107.458 24.8109ZM92.814 18.4206C91.1438 18.0575 90.0304 17.4523 89.9577 16.4115C90.0546 13.9183 93.9033 13.8215 96.1544 16.2179L99.7126 13.4826C97.4857 10.7716 94.9683 10.0454 92.3783 10.0454C88.4328 10.0454 84.6083 12.2723 84.6083 16.4841C84.6083 20.5749 87.755 22.7776 91.2164 23.3101C92.9835 23.5522 94.9441 24.2542 94.8957 25.4644C94.7505 27.764 90.0061 27.643 87.8518 25.0287L84.4146 28.2481C86.4237 30.8381 89.1589 32.1452 91.7248 32.1452C95.6703 32.1452 100.052 29.8699 100.221 25.7065C100.463 20.4539 96.6385 19.1225 92.814 18.4206ZM76.5962 31.8548H82.0183V10.3601H76.5962V31.8548ZM168.021 10.3601H159.985V19.3888L165.334 24.2057V15.4433H168.191C170.006 15.4433 170.902 16.3147 170.902 17.7186V24.4236C170.902 25.8275 170.055 26.7716 168.191 26.7716H159.961V31.879H168.021C172.33 31.9032 176.372 29.7489 176.372 24.8109V17.5976C176.372 12.5628 172.33 10.3601 168.021 10.3601ZM128.59 10.0696C124.136 10.0696 119.707 12.4902 119.707 17.4523V24.7867C119.707 29.7005 124.16 32.1694 128.639 32.1694C133.092 32.1694 137.522 29.7005 137.522 24.7867V17.4523C137.522 12.5144 133.044 10.0696 128.59 10.0696ZM132.076 24.7867C132.076 26.3359 130.333 27.1346 128.614 27.1346C126.871 27.1346 125.129 26.3843 125.129 24.7867V17.4523C125.129 15.879 126.823 15.0318 128.517 15.0318C130.285 15.0318 132.076 15.7821 132.076 17.4523V24.7867ZM156.983 17.4523C156.862 12.4175 153.425 10.3843 148.996 10.3843H140.403V31.879H145.897V25.0529H146.865L151.852 31.879H158.629L152.772 24.4962C155.362 23.6732 156.983 21.4221 156.983 17.4523ZM149.092 20.357H145.897V15.4433H149.092C152.505 15.4433 152.505 20.357 149.092 20.357Z" fill="#9FB1C5"/>
</g>
</g>
</svg>
