<svg width="151" height="40" viewBox="0 0 151 40" fill="none" xmlns="http://www.w3.org/2000/svg">
<g id="Frame 2072750473">
<g id="Vector">
<path d="M26.363 1.94142C24.4823 0.648537 22.0282 0.00052787 19.0007 0.00052787H7.27963C6.3515 0.00052787 5.83874 0.464701 5.74133 1.39193L0.979789 31.2801C0.930304 31.5736 1.00375 31.8421 1.19945 32.0862C1.39403 32.3309 1.63877 32.4525 1.93187 32.4525H7.49929C8.47578 32.4525 9.0125 31.9894 9.11103 31.0606L10.4294 23.0031C10.4776 22.6126 10.6493 22.295 10.9424 22.0505C11.2353 21.8065 11.6016 21.6466 12.0412 21.5736C12.4807 21.501 12.8952 21.4645 13.2866 21.4645C13.6769 21.4645 14.1406 21.4892 14.6787 21.5378C15.2154 21.5866 15.5575 21.6103 15.7042 21.6103C19.9039 21.6103 23.2004 20.4269 25.5938 18.0577C27.9861 15.6893 29.1836 12.4052 29.1836 8.20454C29.1836 5.3232 28.2427 3.23632 26.363 1.94142ZM20.3195 10.9159C20.0746 12.6255 19.4404 13.7482 18.4149 14.2856C17.3892 14.8237 15.9241 15.091 14.0197 15.091L11.6021 15.1645L12.8477 7.3259C12.9449 6.78917 13.2622 6.52047 13.7998 6.52047H15.1921C17.1446 6.52047 18.5618 6.80193 19.4409 7.36262C20.3195 7.92464 20.6126 9.1096 20.3195 10.9159Z" fill="#9FB1C5"/>
<path d="M150.055 0H144.635C144.096 0 143.779 0.268701 143.683 0.805872L138.921 31.2807L138.847 31.4271C138.847 31.6725 138.945 31.9034 139.141 32.1233C139.335 32.3425 139.58 32.4526 139.873 32.4526H144.709C145.635 32.4526 146.148 31.9896 146.247 31.061L151.009 1.09897V1.0262C151.008 0.342591 150.69 0 150.055 0Z" fill="#9FB1C5"/>
<path d="M84.5649 11.7959C84.5649 11.5523 84.4668 11.3199 84.2724 11.1004C84.0765 10.8808 83.8566 10.7704 83.613 10.7704H77.9724C77.4341 10.7704 76.9948 11.0158 76.6535 11.5028L68.8884 22.9314L65.6654 11.9428C65.4199 11.1618 64.8832 10.7704 64.0536 10.7704H58.5588C58.314 10.7704 58.0941 10.8806 57.9 11.1004C57.7041 11.3199 57.6069 11.5525 57.6069 11.7959C57.6069 11.8944 58.0832 13.3344 59.0352 16.1182C59.9873 18.9023 61.0131 21.9059 62.1121 25.1294C63.211 28.3524 63.7842 30.0624 63.8335 30.2566C59.8286 35.7268 57.8268 38.6574 57.8268 39.0475C57.8268 39.6829 58.1441 40 58.7791 40H64.4197C64.9569 40 65.3962 39.7564 65.7386 39.2676L84.4191 12.3082C84.5161 12.2113 84.5649 12.0413 84.5649 11.7959Z" fill="#9FB1C5"/>
<path d="M137.091 10.7703H131.523C130.839 10.7703 130.425 11.5762 130.279 13.1879C129.008 11.2354 126.689 10.2573 123.319 10.2573C119.802 10.2573 116.811 11.5762 114.345 14.2134C111.878 16.8509 110.646 19.9526 110.646 23.5173C110.646 26.3993 111.488 28.6944 113.173 30.4031C114.857 32.1136 117.116 32.9672 119.95 32.9672C121.365 32.9672 122.806 32.6736 124.271 32.0881C125.736 31.5021 126.883 30.7211 127.715 29.7439C127.715 29.793 127.665 30.0122 127.568 30.4027C127.47 30.7941 127.422 31.0879 127.422 31.2818C127.422 32.0641 127.738 32.4537 128.374 32.4537H133.429C134.356 32.4537 134.894 31.9907 135.04 31.0619L138.044 11.942C138.092 11.6489 138.019 11.3807 137.824 11.1362C137.628 10.8928 137.384 10.7703 137.091 10.7703ZM127.531 25.202C126.286 26.423 124.784 27.0334 123.026 27.0334C121.609 27.0334 120.463 26.6434 119.583 25.8615C118.703 25.0816 118.264 24.007 118.264 22.638C118.264 20.8324 118.875 19.3053 120.096 18.0598C121.315 16.8144 122.831 16.1917 124.638 16.1917C126.004 16.1917 127.14 16.5948 128.044 17.4002C128.947 18.2061 129.4 19.3176 129.4 20.7338C129.399 22.4918 128.777 23.9817 127.531 25.202Z" fill="#9FB1C5"/>
<path d="M53.8708 10.7703H48.3033C47.6186 10.7703 47.2044 11.5762 47.0577 13.1879C45.7391 11.2354 43.4191 10.2573 40.0982 10.2573C36.5819 10.2573 33.5901 11.5762 31.1242 14.2134C28.6575 16.8509 27.4249 19.9526 27.4249 23.5173C27.4249 26.3993 28.2674 28.6944 29.9524 30.4031C31.6374 32.1136 33.8955 32.9672 36.7285 32.9672C38.0953 32.9672 39.5124 32.6736 40.9773 32.0881C42.4424 31.5021 43.6146 30.7211 44.4937 29.7439C44.2977 30.3297 44.2005 30.8427 44.2005 31.2818C44.2005 32.0641 44.5178 32.4537 45.1529 32.4537H50.2075C51.1347 32.4537 51.6726 31.9907 51.8192 31.0619L54.8226 11.942C54.8708 11.6489 54.7975 11.3807 54.603 11.1362C54.4075 10.8928 54.1636 10.7703 53.8708 10.7703ZM44.3107 25.2383C43.0651 26.4365 41.5382 27.0334 39.7323 27.0334C38.3152 27.0334 37.1797 26.6434 36.3257 25.8615C35.4706 25.0816 35.0436 24.007 35.0436 22.638C35.0436 20.8324 35.6537 19.3053 36.8752 18.0598C38.0953 16.8144 39.6094 16.1917 41.4171 16.1917C42.7838 16.1917 43.9193 16.5948 44.8237 17.4004C45.7265 18.2063 46.1788 19.3178 46.1788 20.7341C46.1788 22.5408 45.5561 24.0431 44.3107 25.2383Z" fill="#9FB1C5"/>
<path d="M109.583 1.94142C107.703 0.648537 105.249 0.00052787 102.221 0.00052787H90.5729C89.5957 0.00052787 89.0581 0.464701 88.9614 1.39193L84.1996 31.2801C84.1501 31.5738 84.2233 31.8423 84.4192 32.0864C84.6129 32.3309 84.8586 32.4525 85.1517 32.4525H91.1584C91.7444 32.4525 92.1349 32.1354 92.3306 31.5004L93.6495 23.0031C93.6978 22.6126 93.8689 22.295 94.1622 22.0505C94.4553 21.8065 94.8212 21.6468 95.2612 21.5736C95.7005 21.501 96.1148 21.4645 96.5066 21.4645C96.8969 21.4645 97.3606 21.4892 97.898 21.5378C98.4352 21.5866 98.7782 21.6103 98.9235 21.6103C103.124 21.6103 106.42 20.4269 108.813 18.0577C111.207 15.6893 112.403 12.4052 112.403 8.20454C112.403 5.32343 111.463 3.23632 109.583 1.94142ZM102.074 13.9925C101 14.7249 99.3879 15.091 97.2395 15.091L94.8951 15.1645L96.1405 7.3259C96.2372 6.78917 96.5545 6.52047 97.0926 6.52047H98.4108C99.4851 6.52047 100.34 6.56929 100.975 6.66669C101.609 6.76521 102.221 7.06951 102.807 7.58228C103.393 8.09527 103.686 8.84023 103.686 9.81695C103.686 11.868 103.148 13.2596 102.074 13.9925Z" fill="#9FB1C5"/>
</g>
</g>
</svg>
