<svg width="147" height="38" viewBox="0 0 147 38" fill="none" xmlns="http://www.w3.org/2000/svg">
<g id="Frame 2072750470">
<path id="Vector" d="M30.1916 36.9228V22.4734C30.1916 16.5783 33.6455 11.8834 40.5545 11.8834C41.6633 11.8672 42.7699 11.9897 43.8483 12.2482V18.1925C43.0633 18.1405 42.3844 18.1405 42.0696 18.1405C38.4097 18.1405 36.836 19.8094 36.836 23.2003V36.9228H30.1916ZM45.8375 24.6676C45.8375 17.4164 51.3328 11.887 58.9745 11.887C66.6163 11.887 72.1097 17.4128 72.1097 24.6676C72.1097 31.9224 66.6146 37.4964 58.9737 37.4964C51.3328 37.4964 45.8375 31.9151 45.8375 24.6676ZM65.5686 24.6676C65.5686 20.5462 62.7945 17.6253 58.9745 17.6253C55.1546 17.6253 52.3794 20.5437 52.3794 24.6676C52.3794 28.8408 55.1536 31.71 58.9745 31.71C62.7955 31.71 65.5678 28.8372 65.5678 24.6676H65.5686ZM91.3689 17.6735H84.1991V26.8024C84.1991 29.9845 85.3501 31.4455 88.6478 31.4455C88.9616 31.4455 89.7458 31.4455 90.7412 31.3934V36.767C89.3806 37.1317 88.1793 37.3406 86.8682 37.3406C81.3207 37.3406 77.5519 34.0017 77.5519 27.6898V17.6737H73.1034V12.4048H74.2124C75.0981 12.4048 75.9476 12.0537 76.5751 11.4287C76.8852 11.1197 77.1312 10.7525 77.2989 10.3481C77.4665 9.94375 77.5525 9.51021 77.5519 9.07247V4.11018H84.1991V12.4048H91.3689V17.6735ZM93.357 24.6676C93.357 17.4164 98.8523 11.887 106.494 11.887C114.136 11.887 119.63 17.4128 119.63 24.6676C119.63 31.9224 114.135 37.5 106.494 37.5C98.8534 37.5 93.357 31.9151 93.357 24.6676ZM113.087 24.6676C113.087 20.5462 110.313 17.6253 106.493 17.6253C102.673 17.6253 99.8983 20.5434 99.8983 24.6676C99.8983 28.8408 102.672 31.71 106.493 31.71C110.314 31.71 113.087 28.837 113.087 24.6676ZM123.084 36.9228V22.995C123.084 16.5263 127.219 11.8834 134.598 11.8834C141.925 11.8834 146.06 16.5265 146.06 22.995V36.9228H139.466V23.5166C139.466 19.918 137.843 17.6745 134.598 17.6745C131.354 17.6745 129.731 19.9178 129.731 23.5166V36.9228H123.084ZM0.180665 27.4374V36.9219H6.85977V27.8477C6.85977 26.9648 7.2118 26.1182 7.83806 25.4939C8.46521 24.8693 9.31439 24.5187 10.1995 24.519H17.048C20.2408 24.5188 23.3035 23.2536 25.5655 21.0003C26.6833 19.8868 27.5703 18.5637 28.1757 17.1067C28.7811 15.6498 29.0931 14.0877 29.0936 12.5099C29.0932 10.9319 28.7813 9.36953 28.1758 7.91234C27.5703 6.45514 26.6831 5.13181 25.5651 4.01821C23.3027 1.7647 20.2395 0.499608 17.0463 0.5H0.180665V12.3558H6.85977V6.76618H16.5962C18.1069 6.76589 19.5561 7.36421 20.6267 8.43014C21.1557 8.95682 21.5756 9.58274 21.8623 10.272C22.1489 10.9613 22.2967 11.7004 22.2972 12.4469C22.297 13.1936 22.1494 13.933 21.8628 14.6225C21.5763 15.312 21.1564 15.9382 20.6273 16.4652C19.5566 17.5314 18.107 18.1299 16.596 18.1295H9.51809C8.29192 18.1289 7.07757 18.3692 5.94406 18.8368C4.81143 19.304 3.78185 19.9896 2.91404 20.8545C2.04731 21.7183 1.35956 22.7446 0.890227 23.8748C0.421211 25.0039 0.180067 26.2147 0.180665 27.4374Z" fill="#9FB1C5"/>
</g>
</svg>
