<svg width="194" height="38" viewBox="0 0 194 38" fill="none" xmlns="http://www.w3.org/2000/svg">
<g id="5565" clip-path="url(#clip0_1156_556)">
<path id="Vector" d="M11.4495 1.36104C11.4495 2.32306 11.3854 2.75597 11.2571 2.78805C11.1448 2.82011 10.4393 2.94838 9.68579 3.09268C5.10013 3.9585 2.00561 7.5661 1.98959 12.0396C1.97355 16.0961 4.09001 18.4049 9.28494 20.0404C13.3094 21.307 13.9989 21.6597 14.4318 22.718C14.7204 23.3914 14.7204 24.7543 14.4318 25.3154C14.0791 25.9889 13.1331 26.7424 12.3794 26.951C11.4976 27.1914 9.83011 27.0471 8.7879 26.6463C7.66553 26.2294 6.2706 25.2674 5.1322 24.161C4.60309 23.6319 4.12207 23.2953 4.0419 23.3753C3.96174 23.4555 3.16004 24.7382 2.24613 26.2294L0.578613 28.9391L1.07566 29.4682C1.81321 30.2218 3.7533 31.5366 5.00393 32.0978C6.15836 32.6268 8.54739 33.1881 9.65372 33.1881H10.3271V37.9981H12.8925V35.5931C12.8925 33.7973 12.9406 33.156 13.101 33.1239C13.1972 33.0918 13.7584 32.9796 14.3356 32.8834C17.9592 32.21 20.9735 29.2438 21.8073 25.556C22.1601 23.9205 22.0478 21.1627 21.5668 19.7998C20.5567 16.9779 19.0014 15.8716 13.7103 14.2682C10.1989 13.1939 9.52545 12.6809 9.52545 11.1095C9.52545 10.2918 9.57355 10.1636 10.1348 9.61839C11.5618 8.19142 14.5761 8.46399 17.2056 10.2597C17.7828 10.6446 18.2638 10.8851 18.2959 10.8049C18.328 10.7248 18.8891 9.47412 19.5306 8.01504C20.3482 6.20323 20.6689 5.30534 20.5567 5.17707C20.4765 5.06484 19.6749 4.61589 18.7769 4.18298C17.2698 3.44543 16.1634 3.07665 14.6242 2.82011L14.0149 2.70788V-0.00183105H11.4495V1.36104Z" fill="#9FB1C5"/>
<path id="Vector_2" d="M25.1582 3.55764C25.11 3.66988 25.094 10.2597 25.11 18.1965L25.1582 32.6268L29.1345 32.675L33.0949 32.707V3.36523H29.1666C26.1682 3.36523 25.2063 3.41334 25.1582 3.55764Z" fill="#9FB1C5"/>
<path id="Vector_3" d="M38.4821 13.6589C37.6163 19.3349 36.6222 25.7644 36.2854 27.977C35.9488 30.1737 35.6602 32.1458 35.6602 32.3542V32.707L39.2998 32.675L42.9555 32.6268L43.7893 26.5661C44.5268 21.0986 44.9116 18.0201 45.2163 14.8614L45.3124 13.7711L45.9218 16.1441C46.2585 17.4429 46.7876 19.3829 47.0923 20.4412C47.4129 21.4995 48.2787 24.4977 49.0324 27.1112C49.7859 29.7247 50.4753 32.0496 50.5715 32.2901L50.7319 32.707L53.3294 32.675L55.9268 32.6268L58.1395 25.0108C59.342 20.826 60.5446 16.561 60.7851 15.5509L61.234 13.707L61.4264 16.0319C61.6028 18.0361 63.2222 30.6867 63.4948 32.1779L63.591 32.707H67.2627C69.5235 32.707 70.9344 32.6429 70.9344 32.5467C70.9344 32.3222 69.2509 21.2429 67.2627 8.3357L66.5091 3.4454L62.5648 3.39731L58.6205 3.36523L58.4441 3.87832C58.3639 4.16692 57.7386 6.28338 57.0653 8.5762C56.3918 10.869 55.4458 14.0758 54.9648 15.7112C54.4678 17.3467 53.9066 19.3829 53.6981 20.2648C53.4737 21.1307 53.2812 21.8842 53.2492 21.9163C53.2011 21.9483 53.1369 21.6758 53.0728 21.291C52.9606 20.5695 52.704 19.6235 49.7698 9.5703L47.9581 3.36523H40.0695L38.4821 13.6589Z" fill="#9FB1C5"/>
<path id="Vector_4" d="M74.3018 32.7069L77.9575 32.6749L81.5971 32.6268L81.7575 23.0066L85.365 22.9103C89.2612 22.7981 90.2072 22.6378 91.6663 21.8521C94.1515 20.4893 95.5947 18.0842 95.9471 14.701C96.3157 11.1737 95.3705 8.09516 93.3018 6.01076C92.1634 4.87237 91.1372 4.27912 89.4216 3.81414C88.2511 3.49346 87.706 3.4614 81.2444 3.39726L74.3018 3.33313V32.7069ZM86.327 10.0032C87.722 10.5163 88.2511 11.366 88.2511 13.0656C88.2511 15.5348 87.1929 16.3205 83.6494 16.4648L81.6773 16.5609V9.57026L83.6494 9.66649C84.8679 9.71456 85.8781 9.84281 86.327 10.0032Z" fill="#9FB1C5"/>
<path id="Vector_5" d="M99.1543 32.707L108.021 32.675L116.871 32.6268L116.919 29.2277L116.952 25.8124H107.011V3.36523H99.1543V32.707Z" fill="#9FB1C5"/>
<path id="Vector_6" d="M120.351 17.9881L120.399 32.6268H138.196L138.244 29.372L138.276 26.1332H128.175V21.1627H137.635V14.9095H128.175V9.77873H138.276V3.36523H120.318L120.351 17.9881Z" fill="#9FB1C5"/>
<path id="Vector_7" d="M144.529 32.5466H152.226L152.258 26.8226L152.306 21.0825L157.004 21.0344L161.686 21.0023V14.9095H152.226V9.77873L157.244 9.74662L162.247 9.69855L162.295 6.52388L162.328 3.36523H144.529V32.5466Z" fill="#9FB1C5"/>
<path id="Vector_8" d="M164.251 3.46143C164.251 3.52557 165.101 4.76017 166.128 6.23528C167.154 7.69435 169.254 10.6926 170.793 12.9053C172.332 15.102 173.647 16.9939 173.728 17.0901C173.807 17.1864 172.973 18.5171 171.611 20.4572C167.763 25.9408 165.165 29.6125 164.123 31.1037L163.113 32.5466H172.028L174.705 27.8488C176.181 25.2834 177.511 22.8142 177.656 22.3973C177.8 21.9804 177.96 21.6597 178.008 21.7079C178.041 21.756 178.249 22.1728 178.425 22.6378C178.89 23.7762 183.797 32.3864 184.037 32.4825C184.133 32.5146 186.154 32.5307 188.511 32.5146L192.791 32.4665L191.092 30.0614C190.146 28.7307 188.719 26.7104 187.901 25.572C187.1 24.4176 185.48 22.1408 184.326 20.5053C183.155 18.8538 182.209 17.475 182.209 17.4108C182.209 17.3627 183.268 15.7914 184.566 13.9154C185.849 12.0395 187.212 10.0673 187.581 9.53819C187.933 9.00912 188.975 7.51798 189.873 6.21924C190.772 4.92051 191.557 3.75004 191.605 3.60574C191.685 3.3973 191.156 3.36523 187.131 3.36523H182.546L181.52 5.32135C179.451 9.24962 178.409 11.318 178.233 11.831C178.057 12.3602 178.041 12.3441 175.763 7.85469L173.486 3.36523H168.869C166.336 3.36523 164.251 3.41333 164.251 3.46143Z" fill="#9FB1C5"/>
</g>
<defs>
<clipPath id="clip0_1156_556">
<rect width="192.85" height="38" fill="white" transform="translate(0.26123)"/>
</clipPath>
</defs>
</svg>
