<svg width="119" height="50" viewBox="0 0 119 50" fill="none" xmlns="http://www.w3.org/2000/svg">
<path fill-rule="evenodd" clip-rule="evenodd" d="M118.734 25.8178C118.734 17.444 114.678 10.8365 106.925 10.8365C99.1402 10.8365 94.4299 17.444 94.4299 25.7524C94.4299 35.5982 99.9906 40.5701 107.972 40.5701C111.864 40.5701 114.808 39.6869 117.033 38.4439V31.9019C114.808 33.014 112.257 33.701 109.019 33.701C105.846 33.701 103.033 32.5888 102.673 28.729H118.668C118.668 28.3038 118.734 26.6028 118.734 25.8178ZM102.575 22.7103C102.575 19.0141 104.832 17.4767 106.892 17.4767C108.888 17.4767 111.014 19.0141 111.014 22.7103H102.575Z" fill="#9FB1C5"/>
<path fill-rule="evenodd" clip-rule="evenodd" d="M81.8033 10.8365C78.5977 10.8365 76.537 12.3412 75.3921 13.3879L74.9669 11.3599H67.7706V49.5L75.9482 47.7664L75.9809 38.5094C77.1585 39.3598 78.8921 40.5701 81.7706 40.5701C87.6257 40.5701 92.9575 35.8598 92.9575 25.4907C92.9248 16.0047 87.5276 10.8365 81.8033 10.8365ZM79.8407 33.3739C77.9108 33.3739 76.766 32.6869 75.9809 31.8365L75.9482 19.701C76.7987 18.7524 77.9762 18.0982 79.8407 18.0982C82.8173 18.0982 84.8781 21.4346 84.8781 25.7197C84.8781 30.1028 82.8501 33.3739 79.8407 33.3739Z" fill="#9FB1C5"/>
<path fill-rule="evenodd" clip-rule="evenodd" d="M56.5184 8.90653L64.7286 7.14017V0.5L56.5184 2.23364V8.90653Z" fill="#9FB1C5"/>
<path d="M64.7286 11.3925H56.5184V40.0139H64.7286V11.3925Z" fill="#9FB1C5"/>
<path fill-rule="evenodd" clip-rule="evenodd" d="M47.7192 13.8132L47.1959 11.3927H40.1304V40.0141H48.308V20.6169C50.2379 18.0982 53.5089 18.5562 54.5229 18.916V11.3927C53.4762 11.0001 49.6491 10.2805 47.7192 13.8132Z" fill="#9FB1C5"/>
<path fill-rule="evenodd" clip-rule="evenodd" d="M31.3641 4.29432L23.3828 5.99525L23.3501 32.1961C23.3501 37.0373 26.981 40.6027 31.8221 40.6027C34.5043 40.6027 36.4669 40.112 37.5464 39.5232V32.8831C36.4996 33.3083 31.3314 34.813 31.3314 29.9718V18.3597H37.5464V11.3924H31.3314L31.3641 4.29432Z" fill="#9FB1C5"/>
<path fill-rule="evenodd" clip-rule="evenodd" d="M9.25225 19.701C9.25225 18.4253 10.299 17.9346 12.0326 17.9346C14.5186 17.9346 17.6588 18.687 20.1448 20.0281V12.3412C17.4298 11.2617 14.7476 10.8365 12.0326 10.8365C5.39244 10.8365 0.976562 14.3038 0.976562 20.0935C0.976562 29.1215 13.4064 27.6823 13.4064 31.5748C13.4064 33.0795 12.098 33.5701 10.2663 33.5701C7.55132 33.5701 4.08403 32.458 1.33637 30.9533V38.7383C4.37843 40.0467 7.45319 40.6028 10.2663 40.6028C17.07 40.6028 21.7476 37.2337 21.7476 31.3785C21.7148 21.6309 9.25225 23.3645 9.25225 19.701Z" fill="#9FB1C5"/>
</svg>
