<svg width="301" height="40" viewBox="0 0 301 40" fill="none" xmlns="http://www.w3.org/2000/svg">
<path d="M76.7573 30.8111H82.5998V7.89053H90.24V2.34763H69.167V7.89053H76.7573V30.8111ZM90.24 30.8111H95.733V21.2234C95.733 17.8777 97.4308 15.8803 100.077 15.8803C100.976 15.8803 101.725 16.0301 102.574 16.3297V10.7369C101.975 10.5871 101.326 10.4872 100.727 10.4872C98.4795 10.4872 96.4321 11.9853 95.733 13.9328V10.7369H90.24V30.8111ZM113.111 31.2606C115.857 31.2606 117.954 29.8624 118.903 28.564V30.8111H124.396V10.7868H118.903V13.0339C118.004 11.7356 115.907 10.3374 113.111 10.3374C107.768 10.3374 103.673 15.1312 103.673 20.8239C103.673 26.4667 107.768 31.2606 113.111 31.2606ZM114.259 26.267C111.213 26.267 109.216 23.9699 109.216 20.8239C109.216 17.678 111.213 15.3809 114.259 15.3809C117.305 15.3809 119.303 17.678 119.303 20.8239C119.303 23.9699 117.305 26.267 114.259 26.267ZM137.43 31.2606C140.176 31.2606 142.273 29.8624 143.222 28.564V30.8111H148.715V0.74968H143.222V13.0339C142.323 11.7356 140.226 10.3374 137.43 10.3374C132.086 10.3374 127.992 15.1312 127.992 20.8239C128.042 26.4667 132.086 31.2606 137.43 31.2606ZM138.628 26.267C135.582 26.267 133.584 23.9699 133.584 20.8239C133.584 17.678 135.582 15.3809 138.628 15.3809C141.674 15.3809 143.672 17.678 143.672 20.8239C143.672 23.9699 141.674 26.267 138.628 26.267ZM156.355 7.74072C158.303 7.74072 159.901 6.1927 159.901 4.2452C159.901 2.2977 158.303 0.74968 156.355 0.74968C154.458 0.74968 152.86 2.2977 152.86 4.2452C152.91 6.14277 154.458 7.69078 156.355 7.74072ZM153.659 30.8111H159.152V10.9866H153.659V30.8111ZM163.995 30.8111H169.488V21.0237C169.488 17.1786 171.386 15.331 173.933 15.331C176.23 15.331 177.478 17.0788 177.478 19.975V30.8111H182.971V19.0762C182.971 13.8828 180.075 10.3374 175.231 10.3374C172.634 10.3374 170.587 11.436 169.488 13.0839V10.7868H163.995V30.8111ZM196.953 25.468C194.207 25.468 191.86 23.3707 191.86 20.3246C191.86 17.2286 194.157 15.1812 196.953 15.1812C199.7 15.1812 202.047 17.2286 202.047 20.3246C202.047 23.4206 199.75 25.468 196.953 25.468ZM196.304 39.5C202.446 39.5 207.09 36.354 207.09 29.1633V10.6869H201.597V12.9341C200.499 11.386 198.351 10.2375 195.805 10.2375C190.561 10.2375 186.367 14.7318 186.367 20.3745C186.367 25.9674 190.561 30.4616 195.805 30.4616C198.351 30.4616 200.549 29.3131 201.597 27.815V29.1633C201.597 32.3592 199.45 34.6562 196.204 34.6562C193.957 34.6562 191.71 33.9072 189.962 32.1594L186.966 36.2542C189.263 38.5013 192.809 39.5 196.304 39.5ZM218.725 30.8111H223.919L235.704 2.34763H229.312L221.372 22.1223L213.332 2.34763H207.04L218.725 30.8111ZM240.697 7.49104C242.645 7.49104 244.193 5.94302 244.243 3.99552C244.243 2.04802 242.645 0.5 240.697 0.5C238.8 0.5 237.202 2.04802 237.202 3.99552C237.202 5.94302 238.85 7.49104 240.697 7.49104ZM238.001 30.8111H243.494V10.7369H238.001V30.8111ZM257.675 31.2606C261.87 31.2606 265.066 29.5128 266.963 26.7663L262.869 23.7202C261.97 25.1184 260.222 26.267 257.675 26.267C255.029 26.267 252.682 24.7689 252.332 22.0723H267.313C267.413 21.2234 267.413 20.6741 267.413 20.1748C267.413 13.6332 262.819 10.3374 257.526 10.3374C251.433 10.3374 246.989 14.8816 246.989 20.774C247.089 27.1159 251.733 31.2606 257.675 31.2606ZM252.582 18.3771C253.131 15.9302 255.378 14.8816 257.426 14.8816C259.473 14.8816 261.471 15.9802 261.97 18.3771H252.582ZM288.036 30.8111H293.479L300.071 10.7369H294.179L290.433 23.5704L286.339 10.7369H282.144L278.099 23.5704L274.304 10.7369H268.462L275.103 30.8111H280.546L284.291 19.4257L288.036 30.8111Z" fill="#9FB1C5"/>
<path d="M22.6267 30.8111H11.5409V13.4334H0.455078V2.34761H22.5767V30.8111H22.6267ZM44.7982 30.8111H32.1644L44.0492 2.34761H56.683L44.7982 30.8111ZM32.1145 2.34761C35.61 2.34761 38.4564 5.19396 38.4564 8.68948C38.4564 12.185 35.61 15.0313 32.1145 15.0313C28.619 15.0313 25.7726 12.185 25.7726 8.68948C25.8226 5.19396 28.619 2.34761 32.1145 2.34761Z" fill="#9FB1C5"/>
</svg>
